<svg xmlns="http://www.w3.org/2000/svg" viewBox="0 0 25.119 28.014"><defs><style>.a{fill:#0078d7;}</style></defs><g transform="translate(-29.617 -102)"><path class="a" d="M-295.5-638.707v0l0-.034a28.35,28.35,0,0,1-7.64-7.2,26.161,26.161,0,0,1-3.672-7.292,23.453,23.453,0,0,1-1.208-7.92l12.52-5.546v-.024l.027.012.028-.012v.024l12.518,5.546a23.736,23.736,0,0,1-1.207,7.92,26.164,26.164,0,0,1-3.672,7.292,28.348,28.348,0,0,1-7.639,7.2v.033a.157.157,0,0,1-.028-.016l-.013.009-.014.009Zm0-20.676a3.375,3.375,0,0,0-3.419,3.321,3.3,3.3,0,0,0,1.879,2.966v4.631h2.931v-4.563a3.322,3.322,0,0,0,2.027-3.034A3.374,3.374,0,0,0-295.509-659.382Z" transform="translate(337.654 768.72)"/></g></svg>