<?xml version="1.0" encoding="utf-8"?>
<!-- Generator: Adobe Illustrator 22.0.1, SVG Export Plug-In . SVG Version: 6.00 Build 0)  -->
<svg version="1.1" id="Laag_1" xmlns="http://www.w3.org/2000/svg" xmlns:xlink="http://www.w3.org/1999/xlink" x="0px" y="0px"
	 viewBox="0 0 360.2 68.5" style="enable-background:new 0 0 360.2 68.5;" xml:space="preserve">
<style type="text/css">
	.st0{fill:#FFFFFF;}
</style>
<path class="st0" d="M73.5,57.7h-0.4c-4.5,0-9,0-13.6,0h-0.6c0-0.2,0.1-0.4,0.1-0.6c3.3-17,8.6-37,14.7-54c0-0.1,0.1-0.2,0.1-0.3
	h0.4c12,0,23.9,0,35.9,0h0.6c0,0.2-0.1,0.4-0.1,0.5c-0.9,3.2-1.8,6.6-2.7,10c0,0.1-0.1,0.2-0.1,0.3h-0.4c-7.6,0-15.1,0-22.7,0
	c-1.1,3.7-2.2,7.5-3.3,11.3c6.9,0,13.8,0,20.7,0h0.6c-0.1,0.2-0.1,0.4-0.2,0.6c-1,3.6-1.9,7.1-2.8,10.7c0,0.1-0.1,0.2-0.1,0.4h-0.4
	c-7,0-14,0-21,0c-1.9,7.2-3.5,14.2-4.9,20.8C73.5,57.4,73.5,57.6,73.5,57.7"/>
<path class="st0" d="M56.4,57.6h-0.5c-4.6,0-9.2,0-13.7,0h-0.4c0-0.1,0-0.3-0.1-0.4c-0.5-3.3-0.9-6.7-1.2-10.1
	c-5.4,0-10.7-0.1-16-0.1c-1.8,3.5-3.6,7-5.4,10.4c0,0.1-0.1,0.2-0.1,0.2h-0.3c-4.5,0-9,0-13.4,0H4.5c0.1-0.2,0.3-0.5,0.4-0.7
	C15.2,39.3,24.5,20.6,37.2,3.1c0.1-0.1,0.1-0.1,0.2-0.2h0.3c4.9,0,9.8,0,14.6,0h0.4c0,0.1,0,0.3,0,0.4c-0.5,17.1,0.8,36.9,3.7,53.9
	C56.4,57.3,56.4,57.5,56.4,57.6 M30.2,35.9c3.2,0,6.3,0,9.6,0c-0.3-5.4-0.5-10.7-0.5-16.1C36.1,25.2,33.1,30.6,30.2,35.9"/>
<path class="st0" d="M144.5,57.7H144c-4.6,0-9.2,0-13.7,0h-0.4c0-0.1,0-0.3,0-0.4c0.1-3.2,0.1-6.6,0.1-10c-5.5,0-11,0-16.6,0
	c-2.1,3.5-4.2,6.9-6.3,10.2c0,0.1-0.1,0.1-0.1,0.2h-0.3c-4.5,0-9,0-13.5,0h-0.8c0.1-0.2,0.3-0.4,0.4-0.7
	c10.5-16.8,22.8-37.2,32.6-54c0-0.1,0.1-0.1,0.1-0.2h0.3c4.9,0,9.8,0,14.7,0h0.4c0,0.1,0,0.3,0.1,0.4c2.7,17,4,37,3.7,54
	C144.5,57.3,144.5,57.5,144.5,57.7 M120,36c3.3,0,6.7,0,10,0c-0.1-5.4-0.4-10.9-0.7-16.2C126.3,25.1,123.2,30.6,120,36"/>
<path class="st0" d="M199.2,5.8c-1,4-2,8.1-3,12.1c-0.4,0-0.7,0-1.1,0c-1.6-1.6-3.5-3.1-6-4.2c-5.6-2.5-10.9-2.5-14.7-0.7
	c-2.8,1.4-5.1,4.6-3.1,7.4c1.7,2.4,12.3,3.3,17.4,6.7c5.4,3.6,4.7,9.3,3.8,13.2c-1.6,5.3-4.8,9.7-10,12.9c-5.2,3.4-11.6,5-18.8,5
	c-9.3,0-15.6-2.8-17.9-3.9c1.5-4.1,2.9-8.4,4.3-12.8c0.4,0,0.8,0,1.2,0c2,2.3,4.3,4.2,7.1,5.3c4.7,1.8,16.9,4,19.8-4
	c0.9-2.5-0.8-4.3-3.4-5.2c-5.6-1.9-15.4-2.6-18-9.2c-1.1-2.6-1.2-5.7-0.5-9.6c1.2-5.1,3.8-8.8,8.9-12.1C176,0,188.4,2.4,191.4,3.1
	C194.4,3.8,197.2,4.7,199.2,5.8"/>
<path class="st0" d="M195.8,65.2l11.8-41.9h7.7l-0.9,3.3h0.1c2.5-2.8,5.2-4.2,8.3-4.2c4.8,0,7,2.8,6.6,8.5c-0.2,2.2-0.7,4.9-1.6,8.2
	c-1.6,5.8-3.6,10.1-5.9,12.7c-2.3,2.6-5.1,3.9-8.5,3.9c-2.9,0-4.8-1.3-5.7-3.8h-0.1l-3.7,13.3H195.8z M211.3,39.1
	c-0.8,2.9-1.3,5.1-1.4,6.6c-0.2,2.5,0.8,3.8,2.8,3.8c1.6,0,3-0.9,4.2-2.6c0.9-1.5,1.9-4.1,2.9-7.7c0.8-2.9,1.3-5.1,1.4-6.6
	c0.2-2.5-0.7-3.8-2.7-3.8c-1.7,0-3.1,0.9-4.2,2.6C213.3,32.8,212.3,35.4,211.3,39.1z"/>
<path class="st0" d="M230.9,39.1c1.6-5.6,3.7-9.7,6.3-12.3c2.7-2.8,6.4-4.2,10.9-4.3c3.5,0,6,0.7,7.5,2.2c1.4,1.5,2.1,3.8,1.8,6.8
	c-0.1,2-0.7,4.6-1.5,7.6c-1.6,5.6-3.6,9.7-6.2,12.3c-2.8,2.8-6.4,4.2-10.9,4.3c-3.5,0-6-0.7-7.4-2.2c-1.4-1.5-2-3.8-1.8-6.8
	C229.5,44.7,230,42.1,230.9,39.1z M239,39.1c-0.9,3.3-1.5,5.7-1.6,7.2c-0.2,2.6,0.7,3.9,2.8,3.9c1.6,0,3-0.9,4.1-2.6
	s2.2-4.5,3.4-8.5c0.9-3.1,1.4-5.4,1.5-7c0.2-2.7-0.7-4.1-2.7-4.1c-1.8,0-3.3,1-4.5,3.1C241,32.6,240,35.3,239,39.1z"/>
<path class="st0" d="M283.7,34.7H276c0.3-1.2,0.5-2.2,0.6-3c0.2-2.2-0.6-3.3-2.4-3.3c-1.9,0-3.4,0.9-4.6,2.7c-1,1.4-2,4.1-3.1,8.1
	c-0.9,3.3-1.5,5.8-1.6,7.3c-0.2,2.5,0.8,3.8,2.8,3.8c2.6,0,4.6-2.5,6-7.4h7.7c-2.4,8.6-7.7,12.9-15.7,12.9c-3.2,0-5.5-0.7-7-2.1
	c-1.5-1.4-2.1-3.7-1.9-7c0.1-2,0.6-4.5,1.5-7.5c1.7-6.1,4.2-10.5,7.3-13.2c2.7-2.3,6.1-3.5,10.2-3.5c6.1,0,9,2.8,8.6,8.5
	C284.3,32.1,284.1,33.4,283.7,34.7z"/>
<path class="st0" d="M292,15.3h8.1l-5.4,19.8h0.1l11.5-11.8h8.9l-12.6,12.4l5.1,19.1h-8.9l-3.6-13.5c0,0-2.6,1.3-3.5,4.3
	s-2.6,9.2-2.6,9.2h-8.1L292,15.3z"/>
<path class="st0" d="M334.5,40.3h-16l-0.7,2.5c-0.4,1.2-0.6,2.3-0.6,3.3c-0.2,2.7,0.7,4.1,2.5,4.1c2.4,0,4.4-2,5.9-5.9h7.3
	c-2.5,7.6-7.3,11.4-14.7,11.4c-6.5,0-9.5-2.9-9.1-8.8c0.1-1.9,0.7-4.6,1.7-8.1c1.5-5.1,3.3-8.9,5.4-11.3c2.9-3.3,6.8-5,11.7-5
	c6.1,0,8.9,2.9,8.5,8.7c-0.1,2-0.6,4.4-1.5,7.3L334.5,40.3z M319.8,35.5h8.3c0.4-1.8,0.7-3.1,0.8-4.1c0.2-2.3-0.8-3.4-2.8-3.4
	c-2.8,0-4.7,2.1-5.9,6.3L319.8,35.5z"/>
<path class="st0" d="M343.7,23.3l1.8-6.4h8.1l-1.8,6.4h4.7l-1.6,5.5h-4.7l-4.8,17.1c-0.2,0.7-0.3,1.2-0.4,1.6
	c-0.1,1.2,0.7,1.8,2.2,1.8c0.5,0,1.1,0,1.8,0l-1.6,5.5c-2.4,0.2-4.2,0.3-5.4,0.3c-2.3,0-4-0.3-4.9-0.9c-0.9-0.6-1.3-1.7-1.2-3.3
	c0.1-1,0.4-2.4,0.9-4.2l5.1-18.1H338l1.6-5.5H343.7z"/>
</svg>
