<?xml version="1.0" encoding="utf-8"?>
<!-- Generator: Adobe Illustrator 22.0.1, SVG Export Plug-In . SVG Version: 6.00 Build 0)  -->
<svg version="1.1" id="Layer_1" xmlns="http://www.w3.org/2000/svg" xmlns:xlink="http://www.w3.org/1999/xlink" x="0px" y="0px"
	 viewBox="0 0 206.3 183.3" style="enable-background:new 0 0 206.3 183.3;" xml:space="preserve">
<style type="text/css">
	.st0{clip-path:url(#SVGID_2_);}
	.st1{clip-path:url(#SVGID_4_);}
	.st2{clip-path:url(#SVGID_6_);fill:#007FC7;}
	.st3{clip-path:url(#SVGID_6_);fill:#0082C9;}
	.st4{clip-path:url(#SVGID_6_);fill:#0084CB;}
	.st5{clip-path:url(#SVGID_6_);fill:#006EB7;}
	.st6{clip-path:url(#SVGID_6_);fill:#0088CE;}
	.st7{clip-path:url(#SVGID_6_);fill:#0098DD;}
	.st8{clip-path:url(#SVGID_6_);fill:#0092D8;}
	.st9{clip-path:url(#SVGID_6_);fill:#006BB5;}
	.st10{clip-path:url(#SVGID_6_);fill:#0099DF;}
	.st11{clip-path:url(#SVGID_6_);fill:#005EA9;}
	.st12{clip-path:url(#SVGID_6_);fill:#0092D7;}
	.st13{clip-path:url(#SVGID_6_);fill:#006BB6;}
	.st14{clip-path:url(#SVGID_6_);fill:#0062AD;}
	.st15{clip-path:url(#SVGID_6_);fill:#0063AE;}
	.st16{clip-path:url(#SVGID_6_);fill:#005CA7;}
</style>
<g>
	<g>
		<defs>
			<polyline id="SVGID_1_" points="207,184.3 0,184.3 0,0 207,0 207,184.3 			"/>
		</defs>
		<clipPath id="SVGID_2_">
			<use xlink:href="#SVGID_1_"  style="overflow:visible;"/>
		</clipPath>
		<g class="st0">
			<defs>
				<polyline id="SVGID_3_" points="316.9,391 -293.3,391 -293.3,0 316.9,0 316.9,391 				"/>
			</defs>
			<clipPath id="SVGID_4_">
				<use xlink:href="#SVGID_3_"  style="overflow:visible;"/>
			</clipPath>
			<g class="st1">
				<defs>
					<polyline id="SVGID_5_" points="-293.3,391 -293.3,-1 318.7,-1 318.7,391 -293.3,391 					"/>
				</defs>
				<clipPath id="SVGID_6_">
					<use xlink:href="#SVGID_5_"  style="overflow:visible;"/>
				</clipPath>
				<polyline class="st2" points="43.9,28.9 0,111.9 0,136.1 112.6,164.4 43.9,28.9 				"/>
				<polyline class="st3" points="43.9,28.9 112.6,164.4 158.4,46.9 43.9,28.9 				"/>
				<polyline class="st4" points="147.8,0 102.5,0 158.4,46.9 147.8,0 				"/>
				<polyline class="st5" points="195.2,0 147.8,0 158.4,46.9 195.2,0 				"/>
				<polyline class="st6" points="102.5,0 77.4,0 43.9,28.9 158.4,46.9 102.5,0 				"/>
				<polyline class="st7" points="29.6,0 0,0 0,11.7 43.9,28.9 29.6,0 				"/>
				<polyline class="st8" points="77.4,0 29.6,0 43.9,28.9 77.4,0 				"/>
				<polyline class="st9" points="207,0 195.2,0 158.4,46.9 207,31.7 207,0 				"/>
				<polyline class="st10" points="0,11.7 0,50.8 43.9,28.9 0,11.7 				"/>
				<polyline class="st9" points="207,31.7 158.4,46.9 207,88 207,31.7 				"/>
				<polyline class="st11" points="207,113.9 112.6,164.4 207,179.5 207,113.9 				"/>
				<polyline class="st12" points="43.9,28.9 0,50.8 0,111.9 43.9,28.9 				"/>
				<polyline class="st13" points="158.4,46.9 158.4,46.9 112.6,164.4 207,113.9 207,88 158.4,46.9 				"/>
				<polyline class="st14" points="0,136.1 0,143.3 46.4,184.3 107.9,184.3 112.6,164.4 0,136.1 				"/>
				<polyline class="st15" points="0,143.3 0,184.3 46.4,184.3 0,143.3 				"/>
				<polyline class="st16" points="112.6,164.4 122.7,184.3 207,184.3 207,179.5 112.6,164.4 				"/>
				<polyline class="st11" points="112.6,164.4 112.6,164.4 107.9,184.3 122.7,184.3 112.6,164.4 				"/>
			</g>
		</g>
	</g>
</g>
</svg>
